Movies : Western : HD 720p : English
The Good, the Ugly, the Bad, 1280x544

General
Unique ID : 220949725739411401097214844382195087293 (0xA6395E8A7B65C9D284D7DC64633DF7BD)
Complete name : El bueno el feo y el malo.mkv
Format : Matroska
Format version : Version 1
File size : 8.08 GiB
Duration : 2h 59mn
Overall bit rate : 6 436 Kbps
Encoded date : UTC 2007-07-22 21:24:44
Writing application : mkvmerge v2.0.0 ('After The Rain Has Fallen') built on Jan 13 2007 19:58:56
Writing library : libebml v0.7.7 + libmatroska v0.8.0

Video
ID : 1
Format : AVC
Format/Info : Advanced Video Codec
Format profile : High@L5.1
Format settings, CABAC : Yes
Format settings, ReFrames : 7 frames
Codec ID : V_MPEG4/ISO/AVC
Duration : 2h 59mn
Bit rate : 5 986 Kbps
Width : 1 280 pixels
Height : 544 pixels
Display aspect ratio : 2.35:1
Frame rate : 23.976 fps
Color space : YUV
Chroma subsampling : 4:2:0
Bit depth : 8 bits
Scan type : Progressive
Bits/(Pixel*Frame) : 0.359
Stream size : 7.31 GiB (91%)
Writing library : x264 core 50 svn-569M
Encoding settings : cabac=1 / ref=4 / deblock=1:-2:-2 / analyse=0x3:0x133 / me=hex / subme=6 / brdo=1 / mixed_ref=1 / me_range=16 / chroma_me=1 / trellis=1 / 8x8dct=1 / cqm=0 / chroma_qp_offset=0 / slices=2 / nr=0 / decimate=1 / bframes=3 / b_pyramid=1 / b_adapt=1 / b_bias=0 / direct=3 / wpredb=1 / bime=1 / keyint=250 / keyint_min=25 / scenecut=40 / rc=2pass / bitrate=5986 / ratetol=3.0 / rceq='blurCplx^(1-qComp)' / qcomp=0.60 / qpmin=10 / qpmax=51 / qpstep=4 / cplxblur=20.0 / qblur=0.5 / ip_ratio=1.40 / pb_ratio=1.30
Language : English

Audio #1
ID : 2
Format : MPEG Audio
Format version : Version 1
Format profile : Layer 3
Codec ID : A_MPEG/L3
Codec ID/Hint : MP3
Duration : 2h 59mn
Bit rate mode : Constant
Bit rate : 96.0 Kbps
Channel(s) : 1 channel
Sampling rate : 48.0 KHz
Compression mode : Lossy
Stream size : 123 MiB (1%)
Title : Español 2.0
Language : Spanish

Audio #2
ID : 3
Format : AC-3
Format/Info : Audio Coding 3
Mode extension : CM (complete main)
Codec ID : A_AC3
Duration : 2h 59mn
Bit rate mode : Constant
Bit rate : 384 Kbps
Channel(s) : 6 channels
Channel positions : Front: L C R, Side: L R, LFE
Sampling rate : 48.0 KHz
Bit depth : 16 bits
Compression mode : Lossy
Delay relative to video : 5ms
Stream size : 493 MiB (6%)
Title : Ingles 5.1
Language : English

Text #1
ID : 4
Format : UTF-8
Codec ID : S_TEXT/UTF8
Codec ID/Info : UTF-8 Plain Text
Title : Forzados
Language : Spanish

Text #2
ID : 5
Format : UTF-8
Codec ID : S_TEXT/UTF8
Codec ID/Info : UTF-8 Plain Text
Title : Español
Language : Spanish

Text #3
ID : 6
Format : UTF-8
Codec ID : S_TEXT/UTF8
Codec ID/Info : UTF-8 Plain Text
Title : Ingles
Language : English


Enjoy!